<svg xmlns="http://www.w3.org/2000/svg" viewBox="0 0 128 128" role="img" aria-label="AJ logo icon">
  <defs>
    <linearGradient id="bg" x1="0" y1="0" x2="1" y2="1">
      <stop offset="0%" stop-color="#06112a"/>
      <stop offset="55%" stop-color="#0d1f47"/>
      <stop offset="100%" stop-color="#17326b"/>
    </linearGradient>
    <linearGradient id="edge" x1="0" y1="0" x2="1" y2="1">
      <stop offset="0%" stop-color="#7cffc7"/>
      <stop offset="100%" stop-color="#26d38f"/>
    </linearGradient>
    <radialGradient id="shine" cx="24%" cy="16%" r="70%">
      <stop offset="0%" stop-color="#c9ffe8" stop-opacity="0.55"/>
      <stop offset="100%" stop-color="#c9ffe8" stop-opacity="0"/>
    </radialGradient>
    <filter id="soft" x="-40%" y="-40%" width="180%" height="180%">
      <feGaussianBlur stdDeviation="2.4"/>
    </filter>
  </defs>

  <rect x="8" y="8" width="112" height="112" rx="30" fill="url(#bg)"/>
  <rect x="10" y="10" width="108" height="108" rx="28" fill="none" stroke="url(#edge)" stroke-opacity="0.55"/>

  <path d="M26 90 L50 34 L63 34 L87 90 L75 90 L68 74 L44 74 L38 90 Z M48 64 H64 L56 45 Z" fill="#e5fffa"/>
  <path d="M92 34 V76 C92 87 84 94 72 94 C66 94 61 92 56 88 L62 79 C65 82 68 83 72 83 C77 83 80 80 80 75 V34 Z" fill="#7cffc7"/>

  <ellipse cx="46" cy="98" rx="34" ry="7" fill="#29df96" fill-opacity="0.26" filter="url(#soft)"/>
  <rect x="8" y="8" width="112" height="112" rx="30" fill="url(#shine)"/>
</svg>
